<svg width="256" height="256" viewBox="0 0 256 256" xmlns="http://www.w3.org/2000/svg">
  <defs>
    <linearGradient id="chipGrad" x1="0%" y1="0%" x2="0%" y2="100%">
      <stop offset="0%" style="stop-color:#37474f;stop-opacity:1" />
      <stop offset="100%" style="stop-color:#263238;stop-opacity:1" />
    </linearGradient>
    <filter id="blueGlow">
      <feGaussianBlur stdDeviation="4" result="coloredBlur"/>
      <feMerge>
        <feMergeNode in="coloredBlur"/>
        <feMergeNode in="SourceGraphic"/>
      </feMerge>
    </filter>
  </defs>
  
  <!-- Pins -->
  <g fill="#90a4ae">
    <rect x="20" y="60" width="20" height="10" />
    <rect x="20" y="90" width="20" height="10" />
    <rect x="20" y="120" width="20" height="10" />
    <rect x="20" y="150" width="20" height="10" />
    <rect x="20" y="180" width="20" height="10" />
    
    <rect x="216" y="60" width="20" height="10" />
    <rect x="216" y="90" width="20" height="10" />
    <rect x="216" y="120" width="20" height="10" />
    <rect x="216" y="150" width="20" height="10" />
    <rect x="216" y="180" width="20" height="10" />
    
    <rect x="60" y="20" width="10" height="20" />
    <rect x="90" y="20" width="10" height="20" />
    <rect x="120" y="20" width="10" height="20" />
    <rect x="150" y="20" width="10" height="20" />
    <rect x="180" y="20" width="10" height="20" />
    
    <rect x="60" y="216" width="10" height="20" />
    <rect x="90" y="216" width="10" height="20" />
    <rect x="120" y="216" width="10" height="20" />
    <rect x="150" y="216" width="10" height="20" />
    <rect x="180" y="216" width="10" height="20" />
  </g>

  <!-- Chip Body -->
  <rect x="40" y="40" width="176" height="176" rx="15" ry="15" fill="url(#chipGrad)" stroke="#546e7a" stroke-width="2"/>
  
  <!-- Power Button Symbol -->
  <g transform="translate(128, 128)" stroke="#00e5ff" stroke-width="12" stroke-linecap="round" fill="none" filter="url(#blueGlow)">
    <path d="M0 -40 L0 0" />
    <path d="M-25 -25 A 35 35 0 1 0 25 -25" />
  </g>
</svg>
